<svg width="30" height="12" viewBox="0 0 30 12" fill="none" xmlns="http://www.w3.org/2000/svg">
<path d="M29.3077 6.61155H0.692319C0.351935 6.61155 0.0769348 6.33655 0.0769348 5.99617C0.0769348 5.65578 0.351935 5.38078 0.692319 5.38078H27.8212L24.0866 1.64617C23.8462 1.40578 23.8462 1.0154 24.0866 0.775015C24.3269 0.53463 24.7173 0.53463 24.9577 0.775015L29.7442 5.56155C29.9212 5.73848 29.9731 6.00194 29.8769 6.23271C29.7808 6.46155 29.5558 6.61155 29.3077 6.61155Z" fill="#FF6000"/>
<path d="M24.5154 11.4039C24.3577 11.4039 24.2 11.3443 24.0808 11.2231C23.8404 10.9828 23.8404 10.5924 24.0808 10.352L28.8731 5.55968C29.1135 5.3193 29.5038 5.3193 29.7442 5.55968C29.9846 5.80007 29.9846 6.19045 29.7442 6.43084L24.9519 11.2231C24.8308 11.3443 24.6731 11.4039 24.5154 11.4039Z" fill="#FF6000"/>
</svg>
