<svg width="69" height="70" viewBox="0 0 69 70" fill="none" xmlns="http://www.w3.org/2000/svg">
<path d="M69.4082 34.6673C69.449 53.7822 53.9313 69.3674 34.8154 69.4083C15.6994 69.4492 0.11519 53.9315 0.0743215 34.8155C0.0334526 15.6995 15.5512 0.115332 34.6671 0.0744632C53.7831 0.0335944 69.3673 15.5523 69.4082 34.6673ZM2.07532 34.8112C2.11383 52.8232 16.7991 67.4468 34.8121 67.4083C52.825 67.3698 67.4477 52.6845 67.4092 34.6715C67.3707 16.6586 52.6834 2.03595 34.6714 2.07446C16.6594 2.11297 2.03681 16.7993 2.07532 34.8112Z" fill="#B6B6B6"/>
<path d="M47.7694 34.8255C47.77 35.0908 47.6652 35.3453 47.4781 35.5333C47.2909 35.7212 47.0368 35.8271 46.7716 35.8277L22.2116 35.8802C21.9464 35.8808 21.6918 35.7759 21.5039 35.5888C21.316 35.4017 21.2101 35.1475 21.2095 34.8823C21.2089 34.6171 21.3137 34.3625 21.5009 34.1746C21.688 33.9867 21.9421 33.8808 22.2074 33.8802L46.7673 33.8277C47.0325 33.8271 47.2871 33.9319 47.475 34.1191C47.663 34.3062 47.7689 34.5603 47.7694 34.8255Z" fill="#B6B6B6"/>
<path d="M48.2745 34.8663L48.2746 34.8893C48.2714 35.0482 48.2304 35.2041 48.1549 35.3439C48.0793 35.4838 47.9715 35.6035 47.8403 35.6933L40.8735 40.4702C40.7652 40.5445 40.6433 40.5967 40.5148 40.6239C40.3863 40.6511 40.2537 40.6527 40.1246 40.6287C39.9955 40.6046 39.8723 40.5554 39.7622 40.4837C39.6521 40.4121 39.5572 40.3195 39.4829 40.2111C39.4086 40.1028 39.3564 39.9809 39.3292 39.8524C39.302 39.7239 39.3004 39.5913 39.3245 39.4622C39.3485 39.3331 39.3978 39.21 39.4694 39.0999C39.541 38.9898 39.6337 38.8949 39.742 38.8206L45.5595 34.8311L40.269 30.8634C40.064 30.7018 39.9304 30.4665 39.8967 30.2077C39.8629 29.9489 39.9317 29.6871 40.0883 29.4783C40.2448 29.2695 40.4769 29.1302 40.7348 29.0902C40.9926 29.0501 41.256 29.1124 41.4685 29.2639L47.8748 34.0682C48.1262 34.2577 48.2739 34.5533 48.2745 34.8663Z" fill="#B6B6B6"/>
</svg>
